<svg width="131" height="94" viewBox="0 0 131 94" fill="none" xmlns="http://www.w3.org/2000/svg">
  <path d="M36.4972 47C36.4945 45.368 36.8135 43.7515 37.4362 42.2429C38.0588 40.7343 38.9728 39.3633 40.1258 38.2083C41.2788 37.0533 42.6483 36.137 44.1558 35.5119C45.6633 34.8867 47.2793 34.5649 48.9113 34.5649H48.8411C50.4731 34.5649 52.0891 34.8867 53.5966 35.5119C55.1041 36.137 56.4736 37.0533 57.6266 38.2083C58.7796 39.3633 59.6936 40.7343 60.3162 42.2429C60.9389 43.7515 61.2579 45.368 61.2551 47C61.2551 50.2924 59.9472 53.45 57.6191 55.7781C55.291 58.1062 52.1335 59.4141 48.8411 59.4141H48.9113C45.6189 59.4141 42.4613 58.1062 40.1332 55.7781C37.8052 53.45 36.4972 50.2924 36.4972 47ZM94.5771 24.9891H117.691C120.983 24.9891 124.141 23.6812 126.469 21.3531C128.797 19.025 130.105 15.8675 130.105 12.575C130.108 10.943 129.789 9.32649 129.166 7.81791C128.544 6.30933 127.63 4.93832 126.477 3.78334C125.324 2.62835 123.954 1.71205 122.447 1.08687C120.939 0.461687 119.323 0.13989 117.691 0.139893L94.5771 0.139893C92.9451 0.13989 91.3291 0.461687 89.8216 1.08687C88.3141 1.71205 86.9446 2.62835 85.7916 3.78334C84.6386 4.93832 83.7246 6.30933 83.102 7.81791C82.4793 9.32649 82.1603 10.943 82.163 12.575C82.163 15.8675 83.471 19.025 85.799 21.3531C88.1271 23.6812 91.2847 24.9891 94.5771 24.9891ZM15.1889 93.8391H60.0819C63.3743 93.8391 66.5319 92.5312 68.86 90.2031C71.188 87.875 72.4959 84.7174 72.4959 81.425C72.4987 79.793 72.1797 78.1765 71.557 76.6679C70.9344 75.1593 70.0204 73.7883 68.8674 72.6333C67.7144 71.4783 66.3449 70.562 64.8374 69.9368C63.3299 69.3117 61.7139 68.9899 60.0819 68.9899H15.1889C13.5569 68.9899 11.9409 69.3117 10.4333 69.9368C8.92583 70.562 7.55637 71.4783 6.40334 72.6333C5.25031 73.7883 4.33634 75.1593 3.71371 76.6679C3.09109 78.1765 2.77203 79.793 2.77481 81.425C2.77481 84.7174 4.08271 87.875 6.4108 90.2031C8.73889 92.5312 11.8965 93.8391 15.1889 93.8391ZM74.1469 59.4141H78.5379L88.7951 34.5649H82.9288L76.6761 50.8641H76.6059L70.4586 34.5649H64.2058L74.1469 59.4141ZM96.9447 59.4141H102.425V34.5649H96.9447V59.4141ZM112.541 59.4141H130.07V54.3768H118.021V49.3184H128.805V44.2601H118.021V39.6232H129.438V34.5649H112.576L112.541 59.4141ZM7.72076 25.0102H13.2007V4.98749H20.2964V0.139893H0.625V4.98749H7.72076V25.0102ZM28.0245 25.0102H33.5044V14.2612H44.1129V25.0102H49.5928V0.139893H44.1129V9.41356H33.4692V0.139893H28.0245V25.0102ZM57.0047 25.0102H74.5685V19.9518H62.4495V14.8935H73.2336V9.83509H62.4495V5.19826H73.8659V0.139893H57.0047V25.0102ZM1.50319 59.4352H6.94796V40.3609H7.01821L13.3412 59.4352H17.4862L24.0199 40.3609H24.0902V59.4352H29.5701V34.5649H21.3151L15.5542 50.7938H15.4839L9.75816 34.5649H1.46806L1.50319 59.4352ZM80.2521 93.8602H89.1464C90.9481 93.8695 92.7402 93.5969 94.4577 93.0522C96.0785 92.546 97.5912 91.7432 98.9189 90.6846C100.21 89.634 101.257 88.3156 101.989 86.8206C102.8 85.1634 103.214 83.3401 103.197 81.4953C103.255 79.4982 102.851 77.5149 102.017 75.6992C101.285 74.1689 100.196 72.8366 98.8416 71.8141C97.4235 70.7975 95.8156 70.076 94.1134 69.6924C92.2591 69.2292 90.3552 68.9932 88.4439 68.9899H80.217L80.2521 93.8602ZM85.739 74.0482H88.9708C90.0791 74.0443 91.1828 74.1908 92.2517 74.4838C93.2344 74.7511 94.1588 75.199 94.9776 75.8046C95.7556 76.397 96.3857 77.1617 96.8183 78.0387C97.3009 79.0266 97.5417 80.115 97.5208 81.2142C97.5509 82.441 97.3111 83.6594 96.8183 84.7832C96.3982 85.7094 95.7534 86.516 94.9425 87.1297C94.1031 87.7453 93.1468 88.1828 92.1322 88.4154C90.9804 88.6808 89.8015 88.8104 88.6195 88.8018H85.7039L85.739 74.0482ZM111.129 93.8602H121.316C122.433 93.8577 123.547 93.74 124.639 93.5089C125.698 93.2977 126.713 92.9055 127.639 92.3497C128.518 91.8251 129.264 91.1036 129.817 90.242C130.409 89.2504 130.702 88.1085 130.66 86.9541C130.666 86.1877 130.535 85.4263 130.274 84.7059C130.031 84.0256 129.656 83.4 129.171 82.8652C128.682 82.3297 128.098 81.8891 127.449 81.5655C126.749 81.208 125.994 80.9705 125.215 80.863V80.7927C126.422 80.4458 127.503 79.7578 128.328 78.8115C129.136 77.8237 129.553 76.5738 129.501 75.2988C129.557 74.1542 129.276 73.0184 128.693 72.0319C128.17 71.2196 127.443 70.5584 126.585 70.1139C125.668 69.6452 124.677 69.3363 123.656 69.2006C122.578 69.0526 121.491 68.9775 120.403 68.9758H111.129V93.8602ZM116.609 73.6267H120.333C120.769 73.6291 121.203 73.669 121.632 73.7461C122.049 73.8188 122.452 73.9563 122.827 74.1536C123.178 74.3405 123.475 74.6138 123.691 74.9475C123.926 75.3314 124.041 75.7766 124.021 76.2261C124.033 76.6661 123.932 77.1017 123.726 77.4907C123.536 77.8337 123.263 78.1235 122.932 78.3338C122.595 78.5507 122.221 78.7053 121.829 78.7905C121.419 78.883 120.999 78.9302 120.579 78.931H116.546L116.609 73.6267ZM116.609 83.5678H120.754C121.236 83.5702 121.717 83.6054 122.194 83.6732C122.678 83.7391 123.15 83.869 123.599 84.0596C124.032 84.237 124.414 84.5195 124.71 84.8816C125.012 85.286 125.166 85.7822 125.145 86.2867C125.163 86.765 125.049 87.239 124.815 87.6566C124.6 88.0224 124.304 88.3347 123.951 88.57C123.595 88.8071 123.196 88.9741 122.778 89.0617C122.355 89.1528 121.924 89.1999 121.492 89.2022H116.574L116.609 83.5678Z" fill="url(#paint0_linear_24_870)" />
  <defs>
    <linearGradient id="paint0_linear_24_870" x1="0.625" y1="47" x2="130.625" y2="47" gradientUnits="userSpaceOnUse">
      <stop stop-color="#90CEA1" />
      <stop offset="0.56" stop-color="#3CBEC9" />
      <stop offset="1" stop-color="#00B3E5" />
    </linearGradient>
  </defs>
</svg>